<svg width="1200" height="675" viewBox="0 0 1200 675" xmlns="http://www.w3.org/2000/svg">
  <defs>
    <radialGradient id="glowPurple" cx="85%" cy="10%" r="55%">
      <stop offset="0%" stop-color="#8B5CF6" stop-opacity="0.35" />
      <stop offset="100%" stop-color="#8B5CF6" stop-opacity="0" />
    </radialGradient>
    <radialGradient id="glowYellow" cx="8%" cy="95%" r="50%">
      <stop offset="0%" stop-color="#FFD23F" stop-opacity="0.25" />
      <stop offset="100%" stop-color="#FFD23F" stop-opacity="0" />
    </radialGradient>
    <linearGradient id="iconGrad2" x1="0" y1="0" x2="1" y2="1">
      <stop offset="0" stop-color="#8B5CF6" />
      <stop offset="1" stop-color="#FFD23F" />
    </linearGradient>
  </defs>

  <rect width="1200" height="675" fill="#0F0F1A" />
  <rect width="1200" height="675" fill="url(#glowPurple)" />
  <rect width="1200" height="675" fill="url(#glowYellow)" />

  <line x1="80" y1="130" x2="1120" y2="130" stroke="#FFFFFF" stroke-opacity="0.1" stroke-width="1" />
  <text x="80" y="95" font-family="ui-monospace, Menlo, monospace" font-size="13" letter-spacing="3" fill="#FFD23F" fill-opacity="0.9">CYBERUSSELL ACADEMY &#8212; AI SKILLS LEARNING PLATFORM</text>

  <rect x="1032" y="70" width="36" height="36" rx="9" fill="url(#iconGrad2)" />
  <path d="M1042 88L1050 82L1058 88L1050 94Z" fill="#FFFFFF" />
  <path d="M1046 90V96" stroke="#0F0F1A" stroke-width="1.6" stroke-linecap="round" />

  <text x="76" y="290" font-family="Arial, Helvetica, sans-serif" font-weight="800" font-size="74" letter-spacing="-2" fill="#F5F4F0">LEARN TODAY.</text>
  <text x="76" y="380" font-family="Arial, Helvetica, sans-serif" font-weight="800" font-size="74" letter-spacing="-2" fill="#FFD23F">EARN TOMORROW.</text>

  <text x="80" y="460" font-family="Arial, Helvetica, sans-serif" font-size="22" fill="#FFFFFF" fill-opacity="0.5">Practical AI courses and real projects that help Filipinos land online work.</text>

  <g font-family="ui-monospace, Menlo, monospace" font-size="13" letter-spacing="1.5" fill="#FFFFFF" fill-opacity="0.4">
    <text x="80" y="590">COURSES</text>
    <text x="230" y="590">CERTIFICATES</text>
    <text x="430" y="590">AI FEEDBACK</text>
    <text x="620" y="590">DASHBOARD</text>
    <text x="800" y="590">SHOP</text>
  </g>

  <line x1="80" y1="555" x2="1120" y2="555" stroke="#FFFFFF" stroke-opacity="0.1" stroke-width="1" />
</svg>
